<svg width="140" height="29" viewBox="0 0 140 29" fill="none" xmlns="http://www.w3.org/2000/svg">
<path d="M132.956 12.4925L134.071 15.7179C134.285 16.3108 134.569 17.2357 134.901 18.4926C134.996 18.2792 135.162 17.8286 135.375 17.1171C135.613 16.4056 135.755 15.9313 135.826 15.6942L136.941 12.4214H140L135.921 22.3109H134.024L132.079 16.9511L130.158 22.3109H128.237L124.158 12.4214H127.217C128.474 16.121 129.138 18.1369 129.257 18.4926L131.225 12.4925H132.956Z" fill="white"/>
<path d="M37.8326 8.81659V11.5676C36.5519 10.9036 35.2476 10.5953 33.9432 10.5953C32.544 10.5953 31.4293 11.0222 30.5755 11.8996C29.7218 12.7771 29.2949 13.868 29.2949 15.1487C29.2949 16.4293 29.7218 17.5203 30.5518 18.3978C31.3819 19.2752 32.4965 19.7021 33.8483 19.7021C35.295 19.7021 36.6705 19.3701 37.9274 18.7298V21.5282C36.7654 22.1449 35.3424 22.4769 33.6112 22.4769C31.5005 22.4769 29.7455 21.7654 28.3463 20.3662C26.947 18.9669 26.2593 17.2357 26.2593 15.1724C26.2593 13.1091 26.9708 11.3542 28.37 9.95494C29.7692 8.55571 31.5716 7.84424 33.706 7.84424C35.2476 7.84424 36.6231 8.17626 37.8326 8.81659Z" fill="white"/>
<path d="M39.7302 9.62314C39.7302 9.14882 39.8725 8.74565 40.1808 8.46106C40.4891 8.17647 40.8685 8.03418 41.3666 8.03418C41.8646 8.03418 42.2678 8.17647 42.5523 8.46106C42.8369 8.74565 43.0029 9.12511 43.0029 9.62314C43.0029 10.0975 42.8606 10.4769 42.5523 10.7615C42.244 11.0461 41.8646 11.1884 41.3666 11.1884C40.8685 11.1884 40.4654 11.0461 40.1808 10.7615C39.8725 10.4769 39.7302 10.0975 39.7302 9.62314ZM39.8725 12.4216H42.8132V22.2162H39.8725V12.4216Z" fill="white"/>
<path d="M44.5443 12.4212H45.9435V9.48047H48.7894V12.4212H51.3981V14.7217H48.7894V18.6585C48.7894 19.1328 48.908 19.4885 49.1451 19.7257C49.3823 19.9391 49.6906 20.0577 50.0463 20.0577C50.6155 20.0577 51.161 19.9154 51.7064 19.6545V22.0498C51.1135 22.3581 50.2835 22.5004 49.2163 22.5004C48.3625 22.5004 47.6273 22.287 47.0107 21.8364C46.4178 21.3621 46.0621 20.6506 45.9672 19.702C45.9198 19.0854 45.9198 18.7533 45.9198 18.7059V14.7217H44.568V12.4212H44.5443Z" fill="white"/>
<path d="M52.821 26.556V23.9947C53.1056 24.1133 53.485 24.1844 53.9831 24.1844C54.5759 24.1844 55.074 24.0184 55.4534 23.6864C55.8329 23.3544 56.1649 22.8563 56.4732 22.216L52.4415 12.4214H55.6432L56.7815 15.8365C57.327 17.378 57.7064 18.5875 57.9436 19.465C58.0385 19.2752 58.2282 18.6586 58.5365 17.6626C58.8448 16.6428 59.0345 16.0499 59.1057 15.8365L60.244 12.4214H63.4219L59.6274 22.1211C59.0582 23.5678 58.4179 24.6587 57.659 25.4176C56.9001 26.1528 56.0226 26.5797 54.9791 26.6983C54.5522 26.7457 54.1491 26.7457 53.7459 26.722C53.2716 26.6746 52.9633 26.6271 52.821 26.556Z" fill="white"/>
<path d="M74.758 22.2161H65.4139V8.12891H74.4734V10.6428H68.4258V13.8444H73.5484V16.2634H68.4258V19.6785H74.758V22.2161Z" fill="#00F4C6"/>
<path d="M78.956 17.3067C78.956 18.113 79.1931 18.7296 79.6911 19.204C80.1655 19.6783 80.8058 19.9154 81.6121 19.9154C82.5608 19.9154 83.4382 19.6546 84.2209 19.1091V21.7415C83.2485 22.2159 82.2524 22.4767 81.2327 22.4767C79.6911 22.4767 78.4342 22.0024 77.4619 21.0301C76.5132 20.0577 76.0152 18.8245 76.0152 17.3304C76.0152 15.8363 76.4895 14.6031 77.4619 13.6307C78.4105 12.6584 79.6674 12.1841 81.2327 12.1841C82.2524 12.1841 83.2248 12.4212 84.1734 12.8956V15.5517C83.4382 15.0063 82.5845 14.7454 81.6358 14.7454C80.8532 14.7454 80.2129 14.9825 79.7386 15.4569C79.2168 15.9075 78.956 16.5241 78.956 17.3067Z" fill="#00F4C6"/>
<path d="M86.9711 13.6071C87.9672 12.6347 89.2004 12.1367 90.6945 12.1367C92.1886 12.1367 93.4455 12.6347 94.4416 13.6071C95.4376 14.5794 95.9357 15.8127 95.9357 17.3068C95.9357 18.8009 95.4376 20.0341 94.4416 21.0064C93.4455 21.9788 92.2123 22.4768 90.6945 22.4768C89.2004 22.4768 87.9435 21.9788 86.9711 21.0064C85.975 20.0341 85.5007 18.8009 85.5007 17.3068C85.5007 15.8127 85.9988 14.6032 86.9711 13.6071ZM88.9632 19.2515C89.4375 19.7495 90.0067 20.0104 90.7182 20.0104C91.4297 20.0104 91.9989 19.7495 92.4732 19.2515C92.9475 18.7534 93.1846 18.0894 93.1846 17.3068C93.1846 16.5004 92.9475 15.8601 92.4732 15.3621C91.9989 14.864 91.406 14.6032 90.7182 14.6032C90.0067 14.6032 89.4375 14.864 88.9632 15.3621C88.4889 15.8601 88.2755 16.5241 88.2755 17.3068C88.2755 18.0894 88.4889 18.7534 88.9632 19.2515Z" fill="#00F4C6"/>
<path d="M108.695 8.12891L101.77 22.4295H101.652L94.7268 8.12891H98.0233L99.8731 12.208C100.845 14.4136 101.462 15.884 101.723 16.5954C102.268 15.2674 102.909 13.797 103.62 12.208L105.47 8.12891H108.695Z" fill="white"/>
<path d="M109.074 9.62314C109.074 9.14882 109.217 8.74565 109.525 8.46106C109.81 8.17647 110.213 8.03418 110.711 8.03418C111.209 8.03418 111.612 8.17647 111.897 8.46106C112.181 8.74565 112.347 9.12511 112.347 9.62314C112.347 10.0975 112.205 10.4769 111.897 10.7615C111.588 11.0461 111.209 11.1884 110.711 11.1884C110.213 11.1884 109.81 11.0461 109.525 10.7615C109.217 10.4769 109.074 10.0975 109.074 9.62314ZM109.217 12.4216H112.157V22.2162H109.217V12.4216Z" fill="white"/>
<path d="M119.296 12.1602C120.743 12.1602 121.857 12.6108 122.664 13.4882C123.47 14.3657 123.873 15.4566 123.873 16.7373C123.873 17.0219 123.849 17.4013 123.802 17.9231H117.375C117.422 18.5871 117.683 19.1089 118.181 19.4646C118.656 19.8204 119.296 20.0101 120.102 20.0101C120.743 20.0101 121.383 19.9389 122.047 19.7966C122.711 19.6543 123.185 19.4883 123.494 19.2986V21.7888C122.569 22.2631 121.359 22.5002 119.841 22.5002C118.181 22.5002 116.853 22.0259 115.857 21.0536C114.861 20.0812 114.363 18.848 114.363 17.3302C114.363 15.8598 114.837 14.6266 115.786 13.6305C116.711 12.6345 117.897 12.1602 119.296 12.1602ZM121.051 16.4053C121.075 15.8598 120.932 15.3855 120.6 15.006C120.292 14.6266 119.841 14.4369 119.248 14.4369C118.679 14.4369 118.229 14.6266 117.897 15.006C117.565 15.3855 117.375 15.8361 117.328 16.4053H121.051Z" fill="white"/>
<path d="M10.5765 4.29997V0H7.45559V4.29997C3.22497 5.04552 0 8.73864 0 13.1773C0 19.9394 8.32251 28.4353 9.01606 28.4353C9.7096 28.4353 18.0321 20.4595 18.0321 13.1773C18.0321 8.73864 14.8071 5.04552 10.5765 4.29997Z" fill="url(#paint0_linear)"/>
<path d="M9.0159 18.3792C11.8886 18.3792 14.2175 16.0504 14.2175 13.1776C14.2175 10.3049 11.8886 7.97607 9.0159 7.97607C6.14315 7.97607 3.81433 10.3049 3.81433 13.1776C3.81433 16.0504 6.14315 18.3792 9.0159 18.3792Z" fill="white"/>
<path d="M9.10299 15.4313C10.3 15.4313 11.2703 14.461 11.2703 13.264C11.2703 12.067 10.3 11.0967 9.10299 11.0967C7.90601 11.0967 6.93567 12.067 6.93567 13.264C6.93567 14.461 7.90601 15.4313 9.10299 15.4313Z" fill="#0A2A3A"/>
<path d="M9.79623 13.351C10.2271 13.351 10.5765 13.0017 10.5765 12.5708C10.5765 12.1399 10.2271 11.7905 9.79623 11.7905C9.36531 11.7905 9.01599 12.1399 9.01599 12.5708C9.01599 13.0017 9.36531 13.351 9.79623 13.351Z" fill="white"/>
<defs>
<linearGradient id="paint0_linear" x1="2.4274" y1="1.47378" x2="17.3881" y2="37.3522" gradientUnits="userSpaceOnUse">
<stop stop-color="#00F4C6"/>
<stop offset="0.4427" stop-color="#08CFB4"/>
<stop offset="1" stop-color="#139C9B"/>
</linearGradient>
</defs>
</svg>
